<?xml version="1.0" encoding="utf-8"?>
<!-- Generator: Adobe Illustrator 28.1.0, SVG Export Plug-In . SVG Version: 6.00 Build 0)  -->
<svg version="1.1" id="Capa_1" xmlns="http://www.w3.org/2000/svg" xmlns:xlink="http://www.w3.org/1999/xlink" x="0px" y="0px"
	 viewBox="0 0 250 250" style="enable-background:new 0 0 250 250;" xml:space="preserve">
<style type="text/css">
	.st0{fill:#9DCF8E;}
	.st1{fill:#63BD67;}
	.st2{fill:#2D8057;}
	.st3{fill:#C5DFAF;}
	.st4{fill-rule:evenodd;clip-rule:evenodd;fill:#C5DFAF;}
	.st5{fill-rule:evenodd;clip-rule:evenodd;fill:#2D8057;}
	.st6{fill-rule:evenodd;clip-rule:evenodd;fill:#9DCF8E;}
	.st7{fill-rule:evenodd;clip-rule:evenodd;fill:#63BD67;}
</style>
<g>
	<path class="st0" d="M155.26,100.93l11.89-11.91c-2.7-4.27-6.92-7.5-11.89-8.92V100.93z"/>
	<path class="st1" d="M167.75,90.01l-14.72,14.75h16.84c0.34-1.48,0.51-3.03,0.51-4.62C170.37,96.47,169.42,93.01,167.75,90.01z"/>
	<path class="st2" d="M148.67,105.88l11.8,12.01c4.37-2.7,7.67-6.96,9.11-12.01H148.67z"/>
	<path class="st1" d="M129.2,95.53c-0.34,1.48-0.51,3.03-0.51,4.62c0,3.7,0.97,7.17,2.66,10.19l14.7-14.8H129.2z"/>
	<path class="st2" d="M150.34,94.41l-11.88-11.93c-4.3,2.7-7.55,6.93-8.98,11.93H150.34z"/>
	<path class="st3" d="M144.91,103.66v16.82c1.48,0.34,3.03,0.51,4.62,0.51c3.6,0,6.98-0.91,9.94-2.52L144.91,103.66z"/>
	<path class="st0" d="M143.79,99.38l-11.86,11.94c2.7,4.25,6.9,7.45,11.86,8.87V99.38z"/>
	<path class="st3" d="M154.14,96.64V79.81c-1.48-0.34-3.03-0.51-4.62-0.51c-3.65,0-7.09,0.94-10.07,2.59L154.14,96.64z"/>
</g>
<path class="st4" d="M162.43,123.78c-9.46,3.37-6.69,87.86-5.98,99.72c2.24,37.52,49.38,20.24,68.95,7.85
	c36.85-23.33,18.38-38.11-4.81-59.85C211.9,163.35,173.42,119.86,162.43,123.78z"/>
<path class="st5" d="M44.41,3.19C22.25,5.46,4.89,50.93,5.16,70.39c0.3,20.99,11.53,23.05,29.62,23.28
	c17.52,0.22,35.9,0.48,53.36-0.03c54.72-1.62,46.21-7.96,13.84-41.38C91.18,41.11,59.49,1.64,44.41,3.19z"/>
<path class="st6" d="M135.73,124.54c-7.42,1.16-46.5,43.8-54.72,51.76c-24.49,23.71-34.31,39.35,2.84,59.12
	c11.65,6.2,28.63,11.66,41.83,11.42c21.51-0.4,24.19-10.4,23.82-29.61c-0.34-17.13-0.79-34.76-1.51-51.86
	C147.63,156.73,150.52,122.24,135.73,124.54z"/>
<path class="st7" d="M38.08,101.24c-5.21,0.05-12.54,0.31-17.5,0.24c-30.98,0.23-11.69,55.86-2.2,70.93
	c22.38,35.56,37.91,14.33,58.85-5.66c8.38-8,46.83-44.11,48.47-52.62c2.62-13.61-29.21-11.19-37.79-11.55
	C71.7,101.92,54.26,101.29,38.08,101.24z"/>
</svg>
