<?xml version="1.0" encoding="UTF-8"?>
<svg id="Capa_1" data-name="Capa 1" xmlns="http://www.w3.org/2000/svg" viewBox="0 0 221.16 195.75">
  <defs>
    <style>
      .cls-1 {
        fill: #fff;
        stroke-width: 0px;
      }
    </style>
  </defs>
  <g>
    <path class="cls-1" d="M1.97,87.62c0-6.46,2.11-17.14,6.34-32.1,4.58-16.02,8.57-29.4,11.91-40.2,2.17-6.98,3.52-11.62,4.11-13.85.12-.53.29-.94.59-1.12.35-.23.7-.35,1.17-.35.41.06.76.18,1.06.41.29.23.47.7.47,1.29,0,.29-.06.59-.18,1-4.75,12.62-9.15,25.76-13.32,39.38,4.99-11.56,11.5-21.3,19.48-29.23C41.64,4.87,49.09.76,55.96.47c4.17,0,6.34,2.58,6.51,7.75,0,4.81-1,9.39-3.05,13.67-2.05,4.23-4.75,8.16-8.22,11.62-3.46,3.52-7.39,6.57-11.74,9.1-4.4,2.52-8.98,4.46-13.73,5.87-4.81,1.35-9.39,2.05-13.85,2.05-2.05,6.1-3.93,12.73-5.63,20.01-1.7,7.33-2.52,13.03-2.52,17.14,0,.59-.29.88-.82.94-.59,0-.88-.35-.94-1ZM33.25,43.13c7.16-3.58,13.56-8.63,19.13-15.14,5.22-6.28,7.86-13.09,7.86-20.54,0-1.53-.35-2.93-1.06-4.05-.7-1.17-1.76-1.76-3.23-1.76-3.87,0-8.45,1.82-13.62,5.4-5.22,3.58-10.45,8.92-15.73,15.96-5.22,7.04-9.92,15.61-14.03,25.7,6.57-.18,13.5-2,20.66-5.58Z"/>
    <path class="cls-1" d="M97.51,52.05c.12.06.18.12.23.23.06.06.06.18.06.35l-.29.35c-10.92,6.04-19.89,9.1-26.94,9.1-2.46,0-4.46-.47-5.87-1.47-1.41-.94-2.23-2.29-2.46-4.05-.23.23-.88.82-2,1.88-2.29,2.11-4.17,3.17-5.63,3.17-2.11,0-3.23-1.23-3.35-3.7,0-1.29.47-2.7,1.41-4.28s2.17-2.93,3.58-4.11c1.47-1.17,2.93-1.76,4.52-1.76,1.29,0,2.17.35,2.7,1.12s.82,1.64.82,2.58c0,.29-.06.41-.23.47-.18.06-.35.06-.47.06-.06,0-.18,0-.23-.06-.12,0-.18-.06-.29-.18-.06-.06-.12-.18-.12-.35,0-1.06-.65-1.58-1.94-1.64-1,0-2.11.53-3.29,1.58-1.11,1.06-2.11,2.29-2.88,3.64-.76,1.41-1.17,2.52-1.17,3.46,0,1.17.35,1.82,1.06,1.94.88,0,1.94-.53,3.29-1.58,1.29-1.06,2.76-2.41,4.34-4.11.18-.35.53-.53,1-.53.88,0,1.29.35,1.29,1.11,0,3.7,2,5.52,5.99,5.52,6.69,0,15.43-2.93,26.23-8.74l.12-.12c.23,0,.41.06.53.12Z"/>
    <path class="cls-1" d="M95.75,58.98c-.76-.59-1.17-1.47-1.17-2.7s.41-2.64,1.29-3.93c.82-1.35,1.82-2.17,2.82-2.52.88,0,1.35.41,1.35,1.23,0,.23-.06.47-.23.65-2.05,1.7-3.11,3.35-3.11,4.99,0,.47.12.94.41,1.35.23.41.7.59,1.29.59,1,0,1.76-.29,2.35-.82.59-.53,1.17-1.17,1.7-2.05-1.12-.53-1.7-1.53-1.7-2.99,0-1.29.65-2,2-2.11,1.23,0,1.82.76,1.82,2.23,0,.65-.18,1.35-.47,2.05,1.17.53,2.46.82,3.99.82,5.99-.18,11.68-.7,17.08-1.58s9.1-1.64,11.03-2.29c.53,0,.76.23.76.65v.06c0,.35-1.58.88-4.7,1.53-3.11.65-6.81,1.29-11.21,1.88-4.34.59-8.69.94-12.97,1-1.58,0-3.11-.23-4.52-.76-1.23,2.41-2.93,3.64-5.16,3.64-1,0-1.88-.29-2.64-.88ZM103.32,52.93c0-.76-.23-1.12-.65-1.12-.18,0-.23.29-.29.94,0,.7.23,1.23.7,1.58.18-.53.23-1,.23-1.41Z"/>
    <path class="cls-1" d="M132.84,66.37c0-6.51,1.88-14.14,5.58-22.89s8.27-16.55,13.73-23.47c5.52-6.75,11.03-10.33,16.61-10.74,3.81,0,5.81,2,5.87,6.04-.12,2.7-1.35,5.87-3.64,9.51-2.29,3.64-5.22,7.39-8.92,11.27-7.63,8.1-15.67,13.62-24.06,16.61-1.7,5.22-2.52,9.74-2.52,13.56,0,2.76.41,4.69,1.23,5.81.82,1.12,2.11,1.7,3.76,1.7,5.81-.59,12.5-3.4,20.01-8.39,7.57-4.99,13.32-9.51,17.31-13.56l.24-.18c.53,0,.76.23.76.7l-.06.35c-4.17,4.05-10.04,8.63-17.55,13.67-7.63,5.11-14.55,7.98-20.72,8.57-5.11-.35-7.63-3.17-7.63-8.57ZM161.18,35.27c3.7-3.87,6.63-7.63,8.92-11.27,2.23-3.64,3.34-6.57,3.34-8.69-.06-3.23-1.64-4.81-4.69-4.81-5.28.59-10.86,5.16-16.73,13.73-5.87,8.57-10.39,17.61-13.56,27.05,7.75-2.93,15.32-8.27,22.71-16.02Z"/>
    <path class="cls-1" d="M220.63,52.05c.12.06.18.12.23.23.06.06.06.18.06.35l-.29.35c-10.92,6.04-19.89,9.1-26.94,9.1-2.46,0-4.46-.47-5.87-1.47-1.41-.94-2.23-2.29-2.46-4.05-.23.23-.88.82-2,1.88-2.29,2.11-4.17,3.17-5.63,3.17-2.11,0-3.23-1.23-3.34-3.7,0-1.29.47-2.7,1.41-4.28.94-1.58,2.17-2.93,3.58-4.11,1.47-1.17,2.93-1.76,4.52-1.76,1.29,0,2.17.35,2.7,1.12.53.76.82,1.64.82,2.58,0,.29-.06.41-.24.47-.18.06-.35.06-.47.06-.06,0-.18,0-.24-.06-.12,0-.18-.06-.29-.18-.06-.06-.12-.18-.12-.35,0-1.06-.65-1.58-1.94-1.64-1,0-2.11.53-3.29,1.58-1.12,1.06-2.11,2.29-2.88,3.64-.76,1.41-1.17,2.52-1.17,3.46,0,1.17.35,1.82,1.06,1.94.88,0,1.94-.53,3.29-1.58,1.29-1.06,2.76-2.41,4.34-4.11.18-.35.53-.53,1-.53.88,0,1.29.35,1.29,1.11,0,3.7,2,5.52,5.99,5.52,6.69,0,15.43-2.93,26.23-8.74l.12-.12c.23,0,.41.06.53.12Z"/>
  </g>
  <path class="cls-1" d="M110.71,118.34h-9.52v-1.45h9.52v-9.02h1.45v9.02h9.52v1.45h-9.52v9.02h-1.45v-9.02Z"/>
  <g>
    <path class="cls-1" d="M26.72,190.56h-12.01v-.42c1.08-.1,1.84-.28,2.27-.55.76-.48,1.13-1.13,1.13-1.98,0-.5-.17-1.17-.51-2.01l-.31-.77-1.76-4.32H7.48l-.95,2.52-.46,1.13c-.55,1.34-.82,2.4-.82,3.16,0,.45.1.87.3,1.26.2.39.47.71.81.95.48.33,1.08.52,1.83.58v.42H0v-.42c.65-.04,1.21-.19,1.7-.48.49-.28.96-.73,1.43-1.35.39-.5.77-1.14,1.14-1.93.37-.79.86-1.97,1.47-3.54l6.69-17.24h1.04l7.96,19.22c.6,1.45,1.07,2.49,1.43,3.11.35.62.74,1.09,1.15,1.41.29.22.63.39,1.01.5.38.12.94.22,1.7.3v.42ZM15.23,179.77l-3.84-9.47-3.62,9.47h7.46Z"/>
    <path class="cls-1" d="M27.23,190.56v-.44c1.23,0,2.18-.35,2.85-1.04.38-.39.64-.89.78-1.49s.21-1.53.21-2.77v-13.48c0-1.29-.08-2.25-.23-2.86-.15-.62-.44-1.12-.85-1.51-.34-.32-.72-.55-1.14-.69-.42-.15-.96-.23-1.62-.26v-.42h11.69v.42c-.67.04-1.22.13-1.65.27-.43.15-.8.38-1.13.69-.41.4-.69.91-.84,1.52-.15.61-.22,1.55-.22,2.83v10.55c0,1.62.04,2.83.13,3.62.09.79.25,1.44.49,1.94.43.88,1.06,1.52,1.9,1.93.84.41,1.96.61,3.35.61s2.67-.19,3.67-.58c.99-.38,1.81-.98,2.44-1.78.43-.55.78-1.17,1.05-1.87.27-.7.53-1.61.76-2.74l.44.04-.24,7.5h-21.83Z"/>
    <path class="cls-1" d="M69.73,165.6l.31,6.03-.42.02c-.16-1.02-.42-1.87-.79-2.54s-.9-1.26-1.59-1.77c-.57-.43-1.25-.73-2.03-.91s-1.82-.27-3.11-.27h-4.19v10.97h1.1c1.11,0,1.94-.07,2.51-.22.56-.15,1.02-.41,1.37-.79.34-.35.59-.77.76-1.25.16-.48.3-1.19.41-2.13l.42.02-.07,9.8h-.42c-.11-.94-.27-1.69-.48-2.27-.21-.57-.51-1.06-.89-1.46-.37-.39-.84-.68-1.43-.86-.59-.18-1.33-.27-2.23-.27h-1.04v4.19c0,1.67.04,2.89.13,3.65s.25,1.4.49,1.91c.41.88,1.05,1.52,1.89,1.93.85.41,1.97.61,3.36.61,1.46,0,2.69-.19,3.68-.56.99-.37,1.79-.95,2.41-1.73.44-.52.8-1.12,1.07-1.79.27-.67.53-1.55.76-2.65l.42.02-.24,7.28h-21.82v-.42c.69-.04,1.26-.13,1.69-.29s.82-.42,1.16-.77c.38-.39.64-.89.78-1.49s.21-1.53.21-2.77v-13.48c0-1.24-.07-2.17-.21-2.77s-.4-1.1-.78-1.49c-.33-.35-.71-.61-1.14-.77-.43-.16-1-.26-1.71-.29v-.42h19.66Z"/>
    <path class="cls-1" d="M84.47,165.6v.42c-.65.04-1.17.12-1.55.24-.39.12-.75.32-1.08.6-.46.39-.78.9-.96,1.52-.18.62-.26,1.58-.26,2.87v16.33c0,1.66-.12,2.93-.37,3.81s-.69,1.64-1.33,2.28c-.65.62-1.52,1.12-2.61,1.51-1.1.38-2.22.58-3.37.58-.68,0-1.35-.07-1.99-.22-.65-.15-1.16-.34-1.55-.59-.72-.44-1.08-1.02-1.08-1.75,0-.44.14-.8.42-1.08.28-.28.65-.42,1.1-.42s.81.15,1.12.44c.15.15.27.33.38.54.11.21.27.61.49,1.18.21.52.45.9.73,1.12.28.23.65.34,1.1.34.58,0,1.09-.19,1.53-.57.43-.38.77-.93,1-1.65.3-.99.46-2.88.46-5.69v-16.18c0-.77-.06-1.46-.16-2.08-.13-.79-.43-1.41-.88-1.87-.71-.74-1.67-1.16-2.89-1.26v-.42h11.78Z"/>
    <path class="cls-1" d="M111.46,190.56h-12.01v-.42c1.08-.1,1.84-.28,2.27-.55.76-.48,1.13-1.13,1.13-1.98,0-.5-.17-1.17-.51-2.01l-.31-.77-1.76-4.32h-8.05l-.95,2.52-.46,1.13c-.55,1.34-.82,2.4-.82,3.16,0,.45.1.87.3,1.26.2.39.47.71.81.95.48.33,1.08.52,1.83.58v.42h-8.19v-.42c.65-.04,1.21-.19,1.7-.48.49-.28.96-.73,1.43-1.35.39-.5.77-1.14,1.14-1.93s.86-1.97,1.47-3.54l6.69-17.24h1.04l7.95,19.22c.6,1.45,1.07,2.49,1.43,3.11.35.62.74,1.09,1.15,1.41.29.22.63.39,1.01.5.38.12.94.22,1.7.3v.42ZM99.98,179.77l-3.84-9.47-3.62,9.47h7.46Z"/>
    <path class="cls-1" d="M116.56,168.91v15.91c0,1.26.07,2.18.21,2.78.14.6.4,1.09.78,1.48.34.35.73.61,1.16.77s1,.26,1.69.29v.42h-8.43v-.42c.69-.04,1.26-.13,1.69-.29.43-.16.82-.42,1.16-.77.38-.39.64-.89.78-1.49.14-.6.21-1.53.21-2.77v-13.5c0-1.23-.07-2.15-.21-2.75-.14-.6-.4-1.1-.78-1.49-.33-.35-.71-.61-1.14-.77-.43-.16-1-.26-1.71-.29v-.42h7.04l14.85,18.95v-13.2c0-1.26-.07-2.18-.21-2.78-.14-.6-.4-1.09-.78-1.48-.34-.35-.73-.61-1.16-.77-.43-.16-1-.26-1.69-.29v-.42h8.43v.42c-1.22,0-2.17.35-2.85,1.06-.38.39-.64.89-.78,1.49-.14.6-.21,1.52-.21,2.75v19.24h-.82l-17.23-21.65Z"/>
    <path class="cls-1" d="M140.26,190.14c.71-.04,1.27-.13,1.7-.29s.81-.42,1.15-.77c.38-.39.64-.89.78-1.49.14-.6.21-1.53.21-2.77v-13.48c0-1.34-.08-2.32-.25-2.94-.16-.62-.48-1.13-.96-1.54-.6-.5-1.48-.78-2.63-.84v-.42h10.06c2.23,0,3.65.02,4.26.07,2.57.2,4.75.93,6.55,2.19,1.71,1.21,3.04,2.79,3.99,4.75s1.43,4.09,1.43,6.39c0,1.68-.27,3.27-.81,4.76-.54,1.49-1.3,2.73-2.26,3.72-1.35,1.39-3.04,2.27-5.07,2.65-1.51.28-3.05.42-4.63.42h-13.51v-.42ZM148.11,166.17v18.18c0,1.2.07,2.1.2,2.72.13.62.38,1.15.75,1.59.78.95,2.05,1.43,3.8,1.43,1.5,0,2.78-.25,3.85-.74,1.07-.49,2.02-1.3,2.86-2.41.83-1.07,1.46-2.3,1.89-3.68s.65-2.86.65-4.42c0-1.73-.26-3.38-.79-4.94-.52-1.56-1.27-2.93-2.25-4.1-1.35-1.62-2.97-2.69-4.85-3.22-1.02-.28-2.33-.42-3.91-.42h-2.21Z"/>
    <path class="cls-1" d="M177.02,178.35v6.47c0,1.24.07,2.17.21,2.77.14.6.4,1.1.78,1.49.33.34.71.59,1.14.76.43.17,1,.27,1.71.3v.42h-11.68v-.42c.71-.04,1.28-.14,1.71-.3.43-.16.81-.42,1.14-.76.39-.39.65-.88.79-1.48.13-.6.2-1.52.2-2.78v-13.48c0-1.26-.07-2.18-.2-2.78-.13-.6-.4-1.09-.79-1.48-.33-.35-.71-.61-1.15-.77-.44-.16-1.01-.26-1.7-.29v-.42h8.81c1.48,0,2.44,0,2.91.02,1.89.08,3.37.34,4.44.77,1.21.49,2.14,1.22,2.81,2.19.66.97,1,2.09,1,3.37,0,1.9-.72,3.43-2.16,4.57-.44.34-.92.62-1.45.84-.53.22-1.24.43-2.13.62.73.3,1.27.62,1.63.95.28.26.54.58.77.96.23.38.58,1.06,1.04,2.04,1.08,2.23,1.9,3.86,2.46,4.89.55,1.03,1.02,1.78,1.4,2.24.3.38.6.64.89.79.29.15.68.24,1.18.29v.42h-6.07c-.3-.67-.5-1.1-.58-1.28l-1.28-2.91c-.77-1.74-1.54-3.29-2.32-4.63-.78-1.33-1.49-2.24-2.14-2.72-.33-.24-.68-.42-1.06-.52-.38-.1-.84-.16-1.39-.16h-.9ZM177.02,177.94h.7c1.51,0,2.59-.08,3.25-.26s1.26-.52,1.84-1.06c1.28-1.22,1.92-2.73,1.92-4.54,0-.96-.19-1.87-.56-2.72-.37-.85-.89-1.55-1.55-2.09-.51-.41-1.12-.7-1.83-.87-.71-.16-1.71-.25-3.02-.25h-.75v11.78Z"/>
    <path class="cls-1" d="M194.28,178.24c0-2.05.44-3.95,1.32-5.7.88-1.75,2.16-3.28,3.84-4.58,1.26-.96,2.61-1.7,4.06-2.22,1.45-.52,2.91-.78,4.39-.78,1.88,0,3.69.41,5.45,1.24s3.29,1.99,4.61,3.49c2.15,2.44,3.22,5.22,3.22,8.33,0,1.56-.28,3.07-.84,4.52-.56,1.45-1.38,2.78-2.45,3.97-1.32,1.49-2.87,2.64-4.67,3.46-1.8.82-3.68,1.23-5.64,1.23s-3.79-.4-5.56-1.19-3.29-1.92-4.57-3.37c-1.01-1.13-1.79-2.42-2.33-3.87-.54-1.45-.81-2.95-.81-4.51ZM198.71,178.52c0,3.54.96,6.52,2.89,8.95.87,1.09,1.78,1.88,2.75,2.37.97.49,2.09.74,3.36.74s2.4-.24,3.37-.73c.97-.49,1.89-1.28,2.77-2.38,1.93-2.44,2.89-5.45,2.89-9.02,0-1.96-.26-3.82-.79-5.57-.53-1.75-1.28-3.24-2.24-4.46-.78-1-1.65-1.73-2.61-2.19-.96-.46-2.09-.69-3.39-.69s-2.41.23-3.36.68c-.94.45-1.82,1.18-2.62,2.2-.96,1.21-1.71,2.69-2.23,4.45-.52,1.76-.79,3.64-.79,5.65Z"/>
  </g>
</svg>